Coordinates
nRows=17
nColumns=24

# SIMM Motion File Header:
name Coordinates
datacolumns 24
datarows 17
otherdata 1
range 0.68500000000000005000 0.70100000000000007000
endheader
time	pelvis_tx	pelvis_ty	pelvis_tz	pelvis_tilt	pelvis_list	pelvis_rotation	hip_flexion_r	hip_adduction_r	hip_rotation_r	knee_angle_r	ankle_angle_r	subtalar_angle_r	mtp_angle_r	hip_flexion_l	hip_adduction_l	hip_rotation_l	knee_angle_l	ankle_angle_l	subtalar_angle_l	mtp_angle_l	lumbar_extension	lumbar_bending	lumbar_rotation
      0.68500000000000005000	      1.96254840117037110000	      0.93823944051791230000	     -0.24026869337797976000	      4.97359154909810370000	     -2.51301962043240490000	      8.79364703752164440000	     20.03856465645722900000	      1.68183046957756830000	      3.90154940893540130000	    -22.10650673396178000000	     -4.75811724624546710000	     -0.00000000000002056905	      0.00000000000009771338	    -17.37505468130430200000	     -6.32338681710366930000	      2.78484791690805800000	    -30.54213838242065300000	     -5.32284183278078070000	      0.00000000000033704986	     -0.00000000000061617799	     -7.46992946649104630000	      6.93209762970343760000	      1.02888919910853090000
      0.68600000000000005000	      1.96385033839791650000	      0.93842113470068378000	     -0.24017650130287591000	      4.98913444192996010000	     -2.53894351319009370000	      8.80479194238654370000	     19.98009956970976500000	      1.73211119865125070000	      3.86998770109447680000	    -22.18847121419304400000	     -4.64892885180309890000	     -0.00000000000002076513	      0.00000000000009827058	    -17.28989717568547800000	     -6.39195875986869930000	      2.67834891465529300000	    -30.75282596097122600000	     -5.73675512487251820000	      0.00000000000033819524	     -0.00000000000061855639	     -7.47353293202518380000	      6.97405974084813090000	      1.00489825857764740000
      0.68700000000000006000	      1.96514935941933650000	      0.93860517088721562000	     -0.24008695223982410000	      5.00497486785685200000	     -2.56395957932247630000	      8.81653523263752350000	     19.91942061630784600000	      1.78062777624298900000	      3.83628859336208270000	    -22.26717563736604800000	     -4.53624286417851690000	     -0.00000000000002098164	      0.00000000000009892649	    -17.20341328838496500000	     -6.45954421277750690000	      2.57260709174700520000	    -30.96432122613503100000	     -6.14941328307469790000	      0.00000000000033936721	     -0.00000000000062103835	     -7.47765704432673140000	      7.01542944615527380000	      0.97953358067103391000
      0.68800000000000006000	      1.96644546423463180000	      0.93879154907750784000	     -0.24000004618882434000	      5.02111282687877840000	     -2.58806781882955450000	      8.82887690827458020000	     19.85652779625147700000	      1.82738020235278560000	      3.80045208573822220000	    -22.34262000348079600000	     -4.42005928337172540000	     -0.00000000000002121856	      0.00000000000009968109	    -17.11560301940275900000	     -6.52614317583009210000	      2.46762244818319370000	    -31.17662417791206400000	     -6.56081630738732270000	      0.00000000000034056577	     -0.00000000000062362387	     -7.48230180339568830000	      7.05620674562486890000	      0.95279516538869269000
      0.68900000000000006000	      1.96774156904992690000	      0.93897792726780005000	     -0.23991314013782458000	      5.03725078590070560000	     -2.61217605833663180000	      8.84121858391163860000	     19.79363497619510400000	      1.87413262846258010000	      3.76461557811435910000	    -22.41806436959554100000	     -4.30387570256493210000	     -0.00000000000002145549	      0.00000000000010043570	    -17.02779275042054900000	     -6.59274213888267640000	      2.36263780461938300000	    -31.38892712968909700000	     -6.97221933169994830000	      0.00000000000034176433	     -0.00000000000062620940	     -7.48694656246464520000	      7.09698404509446320000	      0.92605675010635002000
      0.69000000000000006000	      1.96903254521252080000	      0.93916831743034912000	     -0.23983081352594718000	      5.05401883629036150000	     -2.63476397317896320000	      8.85450189574439860000	     19.72684078249415800000	      1.91794130858642320000	      3.72514671597904280000	    -22.48774888268999200000	     -4.18456349982990790000	     -0.00000000000002170285	      0.00000000000010116969	    -16.93796515792306700000	     -6.65756188834209000000	      2.25921123558212540000	    -31.60228534233911200000	     -7.38360418694291100000	      0.00000000000034297369	     -0.00000000000062885073	     -7.49261832750435360000	      7.13681692555419020000	      0.89710818768298473000
      0.69100000000000006000	      1.97032219846329900000	      0.93935966889389355000	     -0.23974962061181085000	      5.07094932503283320000	     -2.65699887462196130000	      8.86798859772696880000	     19.65909200809894500000	      1.96105777014217190000	      3.68480491122833300000	    -22.55600618074264900000	     -4.06508808490587900000	     -0.00000000000002195069	      0.00000000000010189295	    -16.84766856585909900000	     -6.72192800489873930000	      2.15621821009276180000	    -31.81585202685209900000	     -7.79496022475346710000	      0.00000000000034417315	     -0.00000000000063145823	     -7.49855171194291440000	      7.17644444174342770000	      0.86765663182141928000
      0.69200000000000006000	      1.97160788297863010000	      0.93955390426042429000	     -0.23967182879089788000	      5.08836712883375150000	     -2.67817473586695830000	      8.88208547015897490000	     19.58847949162093700000	      2.00209757599363500000	      3.64184427863143780000	    -22.61998183366990700000	     -3.94512303341483550000	     -0.00000000000002219996	      0.00000000000010258403	    -16.75596497509567200000	     -6.78493322274709330000	      2.05452581524708270000	    -32.03004412695400300000	     -8.20622981026680160000	      0.00000000000034534287	     -0.00000000000063396427	     -7.50526995457803100000	      7.21545586512119460000	      0.83669609564525138000
      0.69300000000000006000	      1.97289356749396120000	      0.93974813962695514000	     -0.23959403696998491000	      5.10578493263467070000	     -2.69935059711195540000	      8.89618234259098100000	     19.51786697514293000000	      2.04313738184509840000	      3.59888364603454260000	    -22.68395748659716600000	     -3.82515798192379240000	     -0.00000000000002244922	      0.00000000000010327511	    -16.66426138433224600000	     -6.84793844059544730000	      1.95283342040140330000	    -32.24423622705590700000	     -8.61749939578013450000	      0.00000000000034651260	     -0.00000000000063647030	     -7.51198819721314680000	      7.25446728849896160000	      0.80573555946908360000
      0.69400000000000006000	      1.97417439834593610000	      0.93994519920318387000	     -0.23952018494259122000	      5.12347069825778690000	     -2.71918046301416760000	      8.91087560008267940000	     19.44429357974164300000	      2.08165095636193120000	      3.55325010764899620000	    -22.74302683028666600000	     -3.70587834657621060000	     -0.00000000000002271788	      0.00000000000010394241	    -16.57064884874247600000	     -6.90903020370645750000	      1.85296884038901340000	    -32.45925913031764100000	     -9.02546102295824860000	      0.00000000000034766614	     -0.00000000000063892802	     -7.51931761761293590000	      7.29257207740354300000	      0.77315790076436086000
      0.69500000000000006000	      1.97545361131012600000	      0.94014320018264530000	     -0.23944764617970399000	      5.14124578448830150000	     -2.73856166380211840000	      8.92576765259427600000	     19.36973322469927100000	      2.11932245376722110000	      3.50672560066723270000	    -22.80046073756357900000	     -3.58682718327644910000	     -0.00000000000002299300	      0.00000000000010460178	    -16.47639999821059600000	     -6.96948414857168610000	      1.75371353198772000000	    -32.67455896796598600000	     -9.43231999735795770000	      0.00000000000034881428	     -0.00000000000064136963	     -7.52685076393428170000	      7.33037465481706270000	      0.74004120121678663000
      0.69600000000000006000	      1.97673115117495990000	      0.94034194802809934000	     -0.23937642569858203000	      5.15901019765788150000	     -2.75748249905236080000	      8.94085739271083920000	     19.29432454267331900000	      2.15614074165179610000	      3.45941753572647360000	    -22.85634581250002700000	     -3.46803545165971670000	     -0.00000000000002327187	      0.00000000000010526544	    -16.38141827107655100000	     -7.02923606856306280000	      1.65518401729340940000	    -32.89017777888072700000	     -9.83704968017201150000	      0.00000000000034997002	     -0.00000000000064383882	     -7.53447577951053750000	      7.36783863203092260000	      0.70640667648561617000
      0.69700000000000006000	      1.97800367174172660000	      0.94054293647153087000	     -0.23930916006275590000	      5.17674259164465860000	     -2.77502223768948040000	      8.95654019564230270000	     19.21637087969665100000	      2.19039940097423180000	      3.40975879690873060000	    -22.90758439041508500000	     -3.35002201509206900000	     -0.00000000000002356196	      0.00000000000010594197	    -16.28423791413603500000	     -7.08688191393288580000	      1.55883188372004340000	    -33.10675350959464700000	    -10.23539148822911000000	      0.00000000000035114855	     -0.00000000000064639077	     -7.54237640285152280000	      7.40428680864580540000	      0.67121867620365949000
      0.69800000000000006000	      1.97927619230849340000	      0.94074392491496250000	     -0.23924189442692978000	      5.19447498563143560000	     -2.79256197632660010000	      8.97222299857376630000	     19.13841721671998300000	      2.22465806029666750000	      3.36010005809098770000	    -22.95882296833014300000	     -3.23200857852442120000	     -0.00000000000002385205	      0.00000000000010661849	    -16.18705755719551900000	     -7.14452775930270970000	      1.46247975014667750000	    -33.32332924030856700000	    -10.63373329628620900000	      0.00000000000035232709	     -0.00000000000064894272	     -7.55027702619250810000	      7.44073498526068720000	      0.63603067592170281000
      0.69900000000000007000	      1.98054426489034690000	      0.94094665264863075000	     -0.23917811057445920000	      5.21215153944568850000	     -2.80902221460515160000	      8.98849017581076740000	     19.05837264642616400000	      2.25684487136249200000	      3.30848012509501330000	    -23.00632889852817800000	     -3.11374771722629220000	     -0.00000000000002413926	      0.00000000000010722210	    -16.08795742455474500000	     -7.20043495579056710000	      1.36818060194296410000	    -33.54072268833434100000	    -11.02484782200208000000	      0.00000000000035353070	     -0.00000000000065157821	     -7.55835001497959610000	      7.47641818307639740000	      0.59950369121818725000
      0.70000000000000007000	      1.98181085481056220000	      0.94114996014571117000	     -0.23911548731644047000	      5.22980947986910040000	     -2.82512261943084740000	      9.00495214448294770000	     18.97763110702662800000	      2.28834106634278100000	      3.25620646070629680000	    -23.05259061282053800000	     -2.99540438101800270000	     -0.00000000000002442550	      0.00000000000010780141	    -15.98821736668055000000	     -7.25576260265110480000	      1.27456578219579920000	    -33.75838870879740500000	    -11.41355325360421500000	      0.00000000000035474268	     -0.00000000000065424155	     -7.56648045891538510000	      7.51184638795905090000	      0.56253037837415365000
      0.70100000000000007000	      1.98307239804244690000	      0.94135510775319775000	     -0.23905678355981466000	      5.24747301620804760000	     -2.84021546809043060000	      9.02215012232592350000	     18.89459831242594500000	      2.31778326678692310000	      3.20177421505973480000	    -23.09510165399013800000	     -2.87512053664545020000	     -0.00000000000002474810	      0.00000000000010841093	    -15.88643230450582100000	     -7.30935770235475600000	      1.18331201684003530000	    -33.97688334237902600000	    -11.79263036352387900000	      0.00000000000035592517	     -0.00000000000065679078	     -7.57482663786397210000	      7.54663720925977000000	      0.52407905710027336000
